<?xml version="1.0" encoding="UTF-8" standalone="no"?>
<!-- Created with Inkscape (http://www.inkscape.org/) -->

<svg
   xmlns:dc="http://purl.org/dc/elements/1.1/"
   xmlns:cc="http://creativecommons.org/ns#"
   xmlns:rdf="http://www.w3.org/1999/02/22-rdf-syntax-ns#"
   xmlns:svg="http://www.w3.org/2000/svg"
   xmlns="http://www.w3.org/2000/svg"
   xmlns:sodipodi="http://sodipodi.sourceforge.net/DTD/sodipodi-0.dtd"
   xmlns:inkscape="http://www.inkscape.org/namespaces/inkscape"
   width="205mm"
   height="244mm"
   viewBox="0 0 205 244"
   version="1.1"
   id="svg4541"
   inkscape:export-filename="C:\Users\Sonja Lorenz\Desktop\Leitfaden\logo_mt.png"
   inkscape:export-xdpi="229"
   inkscape:export-ydpi="229"
   inkscape:version="0.92.2 (5c3e80d, 2017-08-06)"
   sodipodi:docname="logo_mt.svg">
  <defs
     id="defs4535" />
  <sodipodi:namedview
     id="base"
     pagecolor="#ffffff"
     bordercolor="#666666"
     borderopacity="1.0"
     inkscape:pageopacity="0.0"
     inkscape:pageshadow="2"
     inkscape:zoom="0.35"
     inkscape:cx="-224.28571"
     inkscape:cy="560"
     inkscape:document-units="mm"
     inkscape:current-layer="layer1"
     showgrid="false"
     inkscape:window-width="1920"
     inkscape:window-height="1018"
     inkscape:window-x="1912"
     inkscape:window-y="-8"
     inkscape:window-maximized="1" />
  <metadata
     id="metadata4538">
    <rdf:RDF>
      <cc:Work
         rdf:about="">
        <dc:format>image/svg+xml</dc:format>
        <dc:type
           rdf:resource="http://purl.org/dc/dcmitype/StillImage" />
        <dc:title></dc:title>
      </cc:Work>
    </rdf:RDF>
  </metadata>
  <g
     inkscape:label="Ebene 1"
     inkscape:groupmode="layer"
     id="layer1"
     transform="translate(0,-53)">
    <path
       d="m 169.66076,181.90789 c 8.14323,-28.08136 9.2798,-58.92395 1.20964,-79.7978 -2.79602,-7.228516 -6.2219,-15.594691 -11.21228,-20.407865 -5.75503,-5.554838 -17.04914,-9.190971 -25.03551,-8.7731 -6.93184,0.363175 -15.34417,6.281191 -21.34073,10.569289 -20.12169,14.391392 -33.77973,38.643436 -43.98825,69.221956 15.59228,-0.52026 34.5225,-0.0851 53.22517,5.41329 18.42657,5.41394 34.57105,14.91406 47.14196,23.77423 z m 19.05382,67.79594 c 3.8698,-8.0148 0.0669,-13.33292 -2.96361,-18.01044 -4.73047,-7.29437 -12.73783,-14.01378 -21.7936,-18.6388 -3.05177,2.12502 -6.22781,4.95516 -9.32837,7.72449 -2.9671,2.65009 -5.74801,6.35623 -9.13058,7.03773 0.96569,-7.65185 2.05566,-15.37546 3.40313,-23.24128 -3.13579,-2.60808 -8.45653,-4.01703 -13.69173,-5.47323 -4.76482,6.92506 -9.12752,14.58085 -14.2599,20.83054 -0.8038,-8.6064 -0.58611,-17.77374 -2.13836,-25.97189 -4.26513,-2.1528 -10.46012,-3.27208 -14.8808,-3.95468 -4.044382,7.35716 -7.84963,15.14947 -12.29635,21.77393 -0.86331,-8.67116 -1.31881,-17.56524 -2.48338,-26.07209 -5.00373,-1.39495 -9.67076,-2.1784 -14.14875,-2.62296 -3.30862,7.82512 -5.85282,17.03557 -9.1155,24.93573 -2.57176,-6.07881 -4.59417,-13.60836 -6.54526,-19.79723 -0.63402,-2.02263 -0.72722,-4.70291 -2.38121,-5.91211 -13.03931,-0.61849 -32.538348,0.2085 -38.563565,13.39025 -2.681374,5.86266 0.44872,12.90609 2.576798,16.7796 6.278785,11.4291 21.652277,20.85351 34.929407,27.30643 6.70409,-6.19652 12.21124,-14.57078 19.02757,-20.56318 -0.84384,10.09322 -2.64462,20.70823 -2.00929,29.98475 2.73498,1.43958 7.58578,2.74351 10.65549,3.09794 6.09129,-6.7822 10.93903,-15.60584 17.3084,-21.06091 0.7596,9.20913 1.45664,18.45085 2.8704,27.30272 3.89166,0.94951 8.36639,2.95792 11.5433,2.61224 5.92589,-8.31585 11.23263,-17.75711 17.47729,-25.48772 0.61259,8.90503 -0.0891,18.53268 1.49646,26.90323 15.07201,2.10248 35.9684,1.81369 47.47495,-5.5789 2.36982,-1.52491 5.72832,-4.72348 6.96706,-7.29416 z m 9.19339,0.43757 c -5.91627,20.65069 -24.37698,31.40813 -40.24908,37.13144 -17.61446,6.349 -35.38425,6.09741 -57.21155,5.72986 C 67.46791,285.92077 44.38569,271.57314 27.419913,253.12557 17.218393,242.03208 9.4092396,228.22439 7.5430419,213.79538 c -0.882999,-6.83296 0.5587649,-17.51973 4.5473541,-25.89181 7.229385,-15.17987 19.099326,-21.0154 31.306624,-28.17478 1.54656,-0.90772 3.57072,-2.44728 5.86769,-3.51252 2.07732,-0.96592 5.27611,-1.773 6.11163,-3.06928 2.14252,-3.31759 4.0446,-12.3193 5.58569,-16.64263 C 70.27749,110.34061 82.58455,87.696814 99.557778,74.287752 111.29886,65.013644 124.97111,56.172719 144.564,60.535205 c 28.50952,6.349012 39.12081,25.956127 43.83685,46.672685 4.66287,20.48727 3.6766,40.82752 -2.42452,66.02447 -1.18667,4.89938 -4.18812,10.77451 -4.15377,15.56712 0.009,1.31465 2.13901,3.91355 3.16837,5.7675 2.93823,5.29098 6.27835,11.88087 8.47599,17.00384 4.82609,11.25736 8.92386,22.92252 4.44105,38.57058"
       style="fill:#231f20;fill-opacity:1;fill-rule:nonzero;stroke:none;stroke-width:0.02187806"
       id="path24"
       inkscape:connector-curvature="0"
       inkscape:export-xdpi="229.79987"
       inkscape:export-ydpi="229.79987" />
  </g>
</svg>
