<?xml version="1.0" encoding="UTF-8"?>
<svg width="4096" height="4096" version="1.1" viewBox="0 0 4096 4096" xml:space="preserve" xmlns="http://www.w3.org/2000/svg"><g><path d="m2587.5 139.35a1064.3 1914.6 10.661 0 0-1397.4 1672.4 1600 1100.3 10.661 0 0-715.02 719.11 1600 1100.3 10.661 0 0 1368.8 1377.3 1600 1100.3 10.661 0 0 1775.9-785.34 1600 1100.3 10.661 0 0-346.24-879.9 1064.3 1914.6 10.661 0 0 5.6222-25.136 1064.3 1914.6 10.661 0 0-691.75-2078.4zm-40.748 216.46a857.45 1695.8 10.661 0 1 542.41 1735.8 1600 1100.3 10.661 0 0-838.11-346.18 1600 1100.3 10.661 0 0-834.44 2.1064 857.45 1695.8 10.661 0 1 1130.1-1391.8zm-396.12 1923.1a1428.9 557.51 10.661 0 1 103.15 21.132l28.333 417.3 196.29-360.68a1428.9 557.51 10.661 0 1 246.69 81.893l-45.247 413.05 275.21-313.15a1428.9 557.51 10.661 0 1 131.45 71.864 1428.9 557.51 10.661 0 1 18.402 11.69 1428.9 557.51 10.661 0 1 346.82 469.14 1428.9 557.51 10.661 0 1-678.79 335.33 1064.3 1914.6 10.661 0 0 0.7203-0.8569 1428.9 557.51 10.661 0 1-118 6.8639 1428.9 557.51 10.661 0 1-15.736 0.8049 1428.9 557.51 10.661 0 1-26.687 0.1544l-141.72-474.3-183.9 463.25a1428.9 557.51 10.661 0 1-170.32-19.606l-103.24-440.18-255.65 371.67a1428.9 557.51 10.661 0 1-166.39-45.408l-2.8466-495.83-302.15 387.32a1428.9 557.51 10.661 0 1-4.0628-1.6859 1428.9 557.51 10.661 0 1-639.69-616.23 1428.9 557.51 10.661 0 1 647.3-331.05 1428.9 557.51 10.661 0 1 3.2424-0.3009l140.4 386.01 107.2-398.11a1428.9 557.51 10.661 0 1 260.74 12.847l51.381 404.81 177.38-376.85a1428.9 557.51 10.661 0 1 119.72 19.098z" fill="#ffd800"/></g></svg>
