<?xml version="1.0" encoding="UTF-8"?>
<svg width="4096" height="4096" version="1.1" viewBox="0 0 4096 4096" xml:space="preserve" xmlns="http://www.w3.org/2000/svg"><path d="m2081.5 100a1064.3 1914.6 0 0 0-1063.9 1902 1600 1100.3 0 0 0-569.64 838.97 1600 1100.3 0 0 0 1600 1100.3 1600 1100.3 0 0 0 1600-1100.3 1600 1100.3 0 0 0-503.05-800.66 1064.3 1914.6 0 0 0 0.8749-25.742 1064.3 1914.6 0 0 0-1064.3-1914.6zm0 220.26a857.45 1695.8 0 0 1 854.18 1605.5 1600 1100.3 0 0 0-887.68-185.15 1600 1100.3 0 0 0-819.64 156.44 857.45 1695.8 0 0 1 853.15-1576.8zm-33.502 1963.2a1428.9 557.51 0 0 1 105.28 1.6848l105.04 404.85 126.18-390.77a1428.9 557.51 0 0 1 257.58 34.842l31.949 414.29 212.53-358.66a1428.9 557.51 0 0 1 142.47 46.306 1428.9 557.51 0 0 1 20.247 8.0835 1428.9 557.51 0 0 1 427.62 396.88 1428.9 557.51 0 0 1-605.03 455.12 1064.3 1914.6 0 0 0 0.5494-0.9754 1428.9 557.51 0 0 1-114.69 28.575 1428.9 557.51 0 0 1-15.316 3.7023 1428.9 557.51 0 0 1-26.198 5.0888l-227.02-439.9-95.021 489.28a1428.9 557.51 0 0 1-171.01 12.242l-182.89-413.48-182.47 412.55a1428.9 557.51 0 0 1-171.92-13.842l-94.527-486.74-225.28 436.53a1428.9 557.51 0 0 1-4.3046-0.9052 1428.9 557.51 0 0 1-742.65-487.24 1428.9 557.51 0 0 1 574.88-445.08 1428.9 557.51 0 0 1 3.1308-0.8956l209.39 353.37 31.698-411.07a1428.9 557.51 0 0 1 258.62-35.612l125.38 388.32 104.6-403.16a1428.9 557.51 0 0 1 121.19-3.3807z" fill="#ffd800"/></svg>
